# xmcd
#
# Track frame offsets:
#	150
#	12235
#	24925
#	38597
#	49339
#	62705
#	75602
#	88430
#	100615
#	112307
#	125082
#	138095
#	151610
#	163560
#	176822
#	195055
#	213295
#	227452
#	249972
#	267382
#	294772
#
# Disc length: 4074 seconds
#
# Revision: 3
# Processed by: cddbd v1.4PL0 Copyright (c) Steve Scherf et al.
# Submitted via: CDmax 2.0
#
DISCID=0c0fe815
DTITLE=Bukka White - Parchman Farm Blues
DYEAR=1900
DGENRE=Blues
TTITLE0=Parchman Farm Blues
TTITLE1=Fixin' To Die Blues
TTITLE2=Shake 'em On Down
TTITLE3=Good Gin Blues
TTITLE4=Black Train Blues
TTITLE5=Sleepy Man Blues
TTITLE6=High Fever Blues
TTITLE7=District Attorney Blues
TTITLE8=Aberdeen Mississippi Blues
TTITLE9=Pinebluff, Arkansas
TTITLE10=Strange Place Blues
TTITLE11=When Can I Change My Clothes?
TTITLE12=Bukka's Jitterbug Swing
TTITLE13=Special Streamline
TTITLE14=Rememberance Of Charlie Patton
TTITLE15=Drunk Man's Blues
TTITLE16=Army Blues
TTITLE17=Baby Please Don't Go
TTITLE18=I Am In The Heavenly Way
TTITLE19=Atlanta Special
TTITLE20=Poor Boy Long Ways From Home
EXTD=All compositions By Bukka White\n\nBukka White - Vocals, guitar on all t
EXTD=racks accompanied by:\n1, 2, 4-9, 11-14: Washboard Sam - washboard - Reco
EXTD=rded March 7-8, 1940, Chicago, Illinois\n3,10: Unknown Second guitar: Re
EXTD=corded September 2, 1937, Chicago, Illinois\n15-21: Unknown personel - Re
EXTD=corded 1963, Memphis, Tennessee
EXTT0=
EXTT1=
EXTT2=
EXTT3=
EXTT4=
EXTT5=
EXTT6=
EXTT7=
EXTT8=
EXTT9=
EXTT10=
EXTT11=
EXTT12=
EXTT13=
EXTT14=
EXTT15=
EXTT16=
EXTT17=
EXTT18=
EXTT19=
EXTT20=
PLAYORDER=
